# MagicaVoxel @ Ephtracy

# group
g waypoint

# material
mtllib waypoint.mtl
usemtl palette

# normals
vn -1 0 0
vn 1 0 0
vn 0 0 1
vn 0 0 -1
vn 0 -1 0
vn 0 1 0

# texcoords
vt 0.0214844 0.5
vt 0.306641 0.5
vt 0.841797 0.5
vt 0.958984 0.5

# verts
v -5 3 3
v -5 3 1
v -5 3 -1
v -5 3 -3
v -5 5 3
v -5 5 1
v -5 5 -1
v -5 5 -3
v -5 6 3
v -5 6 1
v -5 6 -1
v -5 6 -3
v -5 8 3
v -5 8 1
v -5 8 -1
v -5 8 -3
v -4 2 3
v -4 2 1
v -4 2 -1
v -4 2 -3
v -4 3 3
v -4 3 1
v -4 3 -1
v -4 3 -3
v -4 8 3
v -4 8 1
v -4 8 -1
v -4 8 -3
v -4 9 3
v -4 9 1
v -4 9 -1
v -4 9 -3
v -3 1 3
v -3 1 -3
v -3 2 3
v -3 2 1
v -3 2 -1
v -3 2 -3
v -3 9 3
v -3 9 1
v -3 9 -1
v -3 9 -3
v -3 10 3
v -3 10 -3
v -1 0 3
v -1 0 -3
v -1 1 3
v -1 1 -3
v -1 10 3
v -1 10 -3
v -1 11 3
v -1 11 -3
v 1 4 2
v 1 4 -2
v 1 6 2
v 1 6 -2
v 2 3 3
v 2 3 2
v 2 3 -2
v 2 3 -3
v 2 7 3
v 2 7 2
v 2 7 -2
v 2 7 -3
v -2 3 3
v -2 3 2
v -2 3 -2
v -2 3 -3
v -2 7 3
v -2 7 2
v -2 7 -2
v -2 7 -3
v -1 4 2
v -1 4 -2
v -1 6 2
v -1 6 -2
v 1 0 3
v 1 0 -3
v 1 1 3
v 1 1 -3
v 1 10 3
v 1 10 -3
v 1 11 3
v 1 11 -3
v 3 1 3
v 3 1 -3
v 3 2 3
v 3 2 1
v 3 2 -1
v 3 2 -3
v 3 9 3
v 3 9 1
v 3 9 -1
v 3 9 -3
v 3 10 3
v 3 10 -3
v 4 2 3
v 4 2 1
v 4 2 -1
v 4 2 -3
v 4 3 3
v 4 3 1
v 4 3 -1
v 4 3 -3
v 4 8 3
v 4 8 1
v 4 8 -1
v 4 8 -3
v 4 9 3
v 4 9 1
v 4 9 -1
v 4 9 -3
v 5 3 3
v 5 3 1
v 5 3 -1
v 5 3 -3
v 5 5 3
v 5 5 1
v 5 5 -1
v 5 5 -3
v 5 6 3
v 5 6 1
v 5 6 -1
v 5 6 -3
v 5 8 3
v 5 8 1
v 5 8 -1
v 5 8 -3
v -5 3 3
v -5 5 3
v -5 6 3
v -5 8 3
v -4 2 3
v -4 3 3
v -4 8 3
v -4 9 3
v -3 1 3
v -3 2 3
v -3 5 3
v -3 6 3
v -3 9 3
v -3 10 3
v -2 3 3
v -2 7 3
v -1 0 3
v -1 1 3
v -1 3 3
v -1 7 3
v -1 10 3
v -1 11 3
v 1 0 3
v 1 1 3
v 1 3 3
v 1 7 3
v 1 10 3
v 1 11 3
v 2 3 3
v 2 7 3
v 3 1 3
v 3 2 3
v 3 5 3
v 3 6 3
v 3 9 3
v 3 10 3
v 4 2 3
v 4 3 3
v 4 8 3
v 4 9 3
v 5 3 3
v 5 5 3
v 5 6 3
v 5 8 3
v -2 3 2
v -2 7 2
v -1 3 2
v -1 4 2
v -1 6 2
v -1 7 2
v 1 3 2
v 1 4 2
v 1 6 2
v 1 7 2
v 2 3 2
v 2 7 2
v -2 3 -2
v -2 7 -2
v -1 3 -2
v -1 4 -2
v -1 6 -2
v -1 7 -2
v 1 3 -2
v 1 4 -2
v 1 6 -2
v 1 7 -2
v 2 3 -2
v 2 7 -2
v -5 3 -3
v -5 5 -3
v -5 6 -3
v -5 8 -3
v -4 2 -3
v -4 3 -3
v -4 8 -3
v -4 9 -3
v -3 1 -3
v -3 2 -3
v -3 5 -3
v -3 6 -3
v -3 9 -3
v -3 10 -3
v -2 3 -3
v -2 7 -3
v -1 0 -3
v -1 1 -3
v -1 3 -3
v -1 7 -3
v -1 10 -3
v -1 11 -3
v 1 0 -3
v 1 1 -3
v 1 3 -3
v 1 7 -3
v 1 10 -3
v 1 11 -3
v 2 3 -3
v 2 7 -3
v 3 1 -3
v 3 2 -3
v 3 5 -3
v 3 6 -3
v 3 9 -3
v 3 10 -3
v 4 2 -3
v 4 3 -3
v 4 8 -3
v 4 9 -3
v 5 3 -3
v 5 5 -3
v 5 6 -3
v 5 8 -3
v -1 0 3
v 1 0 3
v -1 0 -3
v 1 0 -3
v -3 1 3
v -1 1 3
v 1 1 3
v 3 1 3
v -3 1 -3
v -1 1 -3
v 1 1 -3
v 3 1 -3
v -4 2 3
v -3 2 3
v 3 2 3
v 4 2 3
v -4 2 1
v -3 2 1
v 3 2 1
v 4 2 1
v -4 2 -1
v -3 2 -1
v 3 2 -1
v 4 2 -1
v -4 2 -3
v -3 2 -3
v 3 2 -3
v 4 2 -3
v -5 3 3
v -4 3 3
v 4 3 3
v 5 3 3
v -5 3 1
v -4 3 1
v 4 3 1
v 5 3 1
v -5 3 -1
v -4 3 -1
v 4 3 -1
v 5 3 -1
v -5 3 -3
v -4 3 -3
v 4 3 -3
v 5 3 -3
v -1 6 2
v 1 6 2
v -1 6 -2
v 1 6 -2
v -2 7 3
v -1 7 3
v 1 7 3
v 2 7 3
v -2 7 2
v -1 7 2
v 1 7 2
v 2 7 2
v -2 7 -2
v -1 7 -2
v 1 7 -2
v 2 7 -2
v -2 7 -3
v -1 7 -3
v 1 7 -3
v 2 7 -3
v -2 3 3
v -1 3 3
v 1 3 3
v 2 3 3
v -2 3 2
v -1 3 2
v 1 3 2
v 2 3 2
v -2 3 -2
v -1 3 -2
v 1 3 -2
v 2 3 -2
v -2 3 -3
v -1 3 -3
v 1 3 -3
v 2 3 -3
v -1 4 2
v 1 4 2
v -1 4 -2
v 1 4 -2
v -5 8 3
v -4 8 3
v 4 8 3
v 5 8 3
v -5 8 1
v -4 8 1
v 4 8 1
v 5 8 1
v -5 8 -1
v -4 8 -1
v 4 8 -1
v 5 8 -1
v -5 8 -3
v -4 8 -3
v 4 8 -3
v 5 8 -3
v -4 9 3
v -3 9 3
v 3 9 3
v 4 9 3
v -4 9 1
v -3 9 1
v 3 9 1
v 4 9 1
v -4 9 -1
v -3 9 -1
v 3 9 -1
v 4 9 -1
v -4 9 -3
v -3 9 -3
v 3 9 -3
v 4 9 -3
v -3 10 3
v -1 10 3
v 1 10 3
v 3 10 3
v -3 10 -3
v -1 10 -3
v 1 10 -3
v 3 10 -3
v -1 11 3
v 1 11 3
v -1 11 -3
v 1 11 -3

# faces
f 5/4/1 2/4/1 1/4/1
f 6/3/1 3/3/1 2/3/1
f 6/4/1 2/4/1 5/4/1
f 7/4/1 4/4/1 3/4/1
f 7/3/1 3/3/1 6/3/1
f 8/4/1 4/4/1 7/4/1
f 9/3/1 6/3/1 5/3/1
f 9/3/1 7/3/1 6/3/1
f 9/3/1 8/3/1 7/3/1
f 10/3/1 8/3/1 9/3/1
f 11/3/1 8/3/1 10/3/1
f 12/3/1 8/3/1 11/3/1
f 13/4/1 10/4/1 9/4/1
f 14/3/1 11/3/1 10/3/1
f 14/4/1 10/4/1 13/4/1
f 15/4/1 12/4/1 11/4/1
f 15/3/1 11/3/1 14/3/1
f 16/4/1 12/4/1 15/4/1
f 21/4/1 18/4/1 17/4/1
f 22/3/1 19/3/1 18/3/1
f 22/4/1 18/4/1 21/4/1
f 23/4/1 20/4/1 19/4/1
f 23/3/1 19/3/1 22/3/1
f 24/4/1 20/4/1 23/4/1
f 29/4/1 26/4/1 25/4/1
f 30/3/1 27/3/1 26/3/1
f 30/4/1 26/4/1 29/4/1
f 31/4/1 28/4/1 27/4/1
f 31/3/1 27/3/1 30/3/1
f 32/4/1 28/4/1 31/4/1
f 35/3/1 34/3/1 33/3/1
f 36/3/1 34/3/1 35/3/1
f 37/3/1 34/3/1 36/3/1
f 38/3/1 34/3/1 37/3/1
f 43/3/1 40/3/1 39/3/1
f 43/3/1 42/3/1 41/3/1
f 43/3/1 41/3/1 40/3/1
f 44/3/1 42/3/1 43/3/1
f 47/4/1 46/4/1 45/4/1
f 48/4/1 46/4/1 47/4/1
f 51/4/1 50/4/1 49/4/1
f 52/4/1 50/4/1 51/4/1
f 55/3/1 54/3/1 53/3/1
f 56/3/1 54/3/1 55/3/1
f 61/3/1 58/3/1 57/3/1
f 62/3/1 58/3/1 61/3/1
f 63/3/1 60/3/1 59/3/1
f 64/3/1 60/3/1 63/3/1
f 65/3/2 66/3/2 69/3/2
f 69/3/2 66/3/2 70/3/2
f 67/3/2 68/3/2 71/3/2
f 71/3/2 68/3/2 72/3/2
f 73/3/2 74/3/2 75/3/2
f 75/3/2 74/3/2 76/3/2
f 77/4/2 78/4/2 79/4/2
f 79/4/2 78/4/2 80/4/2
f 81/4/2 82/4/2 83/4/2
f 83/4/2 82/4/2 84/4/2
f 85/3/2 86/3/2 87/3/2
f 87/3/2 86/3/2 88/3/2
f 88/3/2 86/3/2 89/3/2
f 89/3/2 86/3/2 90/3/2
f 91/3/2 92/3/2 95/3/2
f 93/3/2 94/3/2 95/3/2
f 92/3/2 93/3/2 95/3/2
f 95/3/2 94/3/2 96/3/2
f 97/4/2 98/4/2 101/4/2
f 98/3/2 99/3/2 102/3/2
f 101/4/2 98/4/2 102/4/2
f 99/4/2 100/4/2 103/4/2
f 102/3/2 99/3/2 103/3/2
f 103/4/2 100/4/2 104/4/2
f 105/4/2 106/4/2 109/4/2
f 106/3/2 107/3/2 110/3/2
f 109/4/2 106/4/2 110/4/2
f 107/4/2 108/4/2 111/4/2
f 110/3/2 107/3/2 111/3/2
f 111/4/2 108/4/2 112/4/2
f 113/4/2 114/4/2 117/4/2
f 114/3/2 115/3/2 118/3/2
f 117/4/2 114/4/2 118/4/2
f 115/4/2 116/4/2 119/4/2
f 118/3/2 115/3/2 119/3/2
f 119/4/2 116/4/2 120/4/2
f 117/3/2 118/3/2 121/3/2
f 118/3/2 119/3/2 121/3/2
f 119/3/2 120/3/2 121/3/2
f 121/3/2 120/3/2 122/3/2
f 122/3/2 120/3/2 123/3/2
f 123/3/2 120/3/2 124/3/2
f 121/4/2 122/4/2 125/4/2
f 122/3/2 123/3/2 126/3/2
f 125/4/2 122/4/2 126/4/2
f 123/4/2 124/4/2 127/4/2
f 126/3/2 123/3/2 127/3/2
f 127/4/2 124/4/2 128/4/2
f 134/4/3 130/4/3 129/4/3
f 135/4/3 132/4/3 131/4/3
f 138/4/3 134/4/3 133/4/3
f 139/3/3 131/3/3 130/3/3
f 139/4/3 130/4/3 134/4/3
f 139/4/3 134/4/3 138/4/3
f 140/4/3 136/4/3 135/4/3
f 140/3/3 131/3/3 139/3/3
f 140/4/3 135/4/3 131/4/3
f 141/4/3 136/4/3 140/4/3
f 143/3/3 139/3/3 138/3/3
f 143/3/3 142/3/3 141/3/3
f 143/3/3 141/3/3 140/3/3
f 143/3/3 140/3/3 139/3/3
f 143/3/3 138/3/3 137/3/3
f 144/3/3 142/3/3 143/3/3
f 146/3/3 143/3/3 137/3/3
f 147/3/3 143/3/3 146/3/3
f 148/3/3 142/3/3 144/3/3
f 149/3/3 142/3/3 148/3/3
f 151/4/3 147/4/3 146/4/3
f 151/4/3 146/4/3 145/4/3
f 152/4/3 147/4/3 151/4/3
f 153/4/3 147/4/3 152/4/3
f 154/4/3 150/4/3 149/4/3
f 154/4/3 149/4/3 148/4/3
f 155/4/3 150/4/3 154/4/3
f 156/4/3 150/4/3 155/4/3
f 157/3/3 153/3/3 152/3/3
f 158/3/3 155/3/3 154/3/3
f 159/3/3 157/3/3 152/3/3
f 159/3/3 158/3/3 157/3/3
f 160/3/3 158/3/3 159/3/3
f 161/3/3 158/3/3 160/3/3
f 162/3/3 158/3/3 161/3/3
f 163/3/3 155/3/3 158/3/3
f 163/3/3 158/3/3 162/3/3
f 164/3/3 155/3/3 163/3/3
f 165/4/3 161/4/3 160/4/3
f 166/4/3 161/4/3 165/4/3
f 167/4/3 163/4/3 162/4/3
f 168/4/3 163/4/3 167/4/3
f 169/4/3 161/4/3 166/4/3
f 170/3/3 162/3/3 161/3/3
f 170/4/3 161/4/3 169/4/3
f 171/4/3 167/4/3 162/4/3
f 171/3/3 162/3/3 170/3/3
f 172/4/3 167/4/3 171/4/3
f 175/3/3 174/3/3 173/3/3
f 176/3/3 174/3/3 175/3/3
f 177/3/3 174/3/3 176/3/3
f 178/3/3 174/3/3 177/3/3
f 179/1/3 176/1/3 175/1/3
f 180/1/3 176/1/3 179/1/3
f 181/1/3 178/1/3 177/1/3
f 182/1/3 178/1/3 181/1/3
f 183/3/3 180/3/3 179/3/3
f 183/3/3 181/3/3 180/3/3
f 183/3/3 182/3/3 181/3/3
f 184/3/3 182/3/3 183/3/3
f 185/3/4 186/3/4 187/3/4
f 187/3/4 186/3/4 188/3/4
f 188/3/4 186/3/4 189/3/4
f 189/3/4 186/3/4 190/3/4
f 187/1/4 188/1/4 191/1/4
f 191/1/4 188/1/4 192/1/4
f 189/1/4 190/1/4 193/1/4
f 193/1/4 190/1/4 194/1/4
f 191/3/4 192/3/4 195/3/4
f 192/3/4 193/3/4 195/3/4
f 193/3/4 194/3/4 195/3/4
f 195/3/4 194/3/4 196/3/4
f 197/4/4 198/4/4 202/4/4
f 199/4/4 200/4/4 203/4/4
f 201/4/4 202/4/4 206/4/4
f 198/3/4 199/3/4 207/3/4
f 202/4/4 198/4/4 207/4/4
f 206/4/4 202/4/4 207/4/4
f 203/4/4 204/4/4 208/4/4
f 207/3/4 199/3/4 208/3/4
f 199/4/4 203/4/4 208/4/4
f 208/4/4 204/4/4 209/4/4
f 206/3/4 207/3/4 211/3/4
f 209/3/4 210/3/4 211/3/4
f 208/3/4 209/3/4 211/3/4
f 207/3/4 208/3/4 211/3/4
f 205/3/4 206/3/4 211/3/4
f 211/3/4 210/3/4 212/3/4
f 205/3/4 211/3/4 214/3/4
f 214/3/4 211/3/4 215/3/4
f 212/3/4 210/3/4 216/3/4
f 216/3/4 210/3/4 217/3/4
f 214/4/4 215/4/4 219/4/4
f 213/4/4 214/4/4 219/4/4
f 219/4/4 215/4/4 220/4/4
f 220/4/4 215/4/4 221/4/4
f 217/4/4 218/4/4 222/4/4
f 216/4/4 217/4/4 222/4/4
f 222/4/4 218/4/4 223/4/4
f 223/4/4 218/4/4 224/4/4
f 220/3/4 221/3/4 225/3/4
f 222/3/4 223/3/4 226/3/4
f 220/3/4 225/3/4 227/3/4
f 225/3/4 226/3/4 227/3/4
f 227/3/4 226/3/4 228/3/4
f 228/3/4 226/3/4 229/3/4
f 229/3/4 226/3/4 230/3/4
f 226/3/4 223/3/4 231/3/4
f 230/3/4 226/3/4 231/3/4
f 231/3/4 223/3/4 232/3/4
f 228/4/4 229/4/4 233/4/4
f 233/4/4 229/4/4 234/4/4
f 230/4/4 231/4/4 235/4/4
f 235/4/4 231/4/4 236/4/4
f 234/4/4 229/4/4 237/4/4
f 229/3/4 230/3/4 238/3/4
f 237/4/4 229/4/4 238/4/4
f 230/4/4 235/4/4 239/4/4
f 238/3/4 230/3/4 239/3/4
f 239/4/4 235/4/4 240/4/4
f 243/4/5 242/4/5 241/4/5
f 244/4/5 242/4/5 243/4/5
f 249/3/5 246/3/5 245/3/5
f 250/3/5 246/3/5 249/3/5
f 251/3/5 248/3/5 247/3/5
f 252/3/5 248/3/5 251/3/5
f 257/4/5 254/4/5 253/4/5
f 258/4/5 254/4/5 257/4/5
f 259/4/5 256/4/5 255/4/5
f 260/4/5 256/4/5 259/4/5
f 261/3/5 258/3/5 257/3/5
f 262/3/5 258/3/5 261/3/5
f 263/3/5 260/3/5 259/3/5
f 264/3/5 260/3/5 263/3/5
f 265/4/5 262/4/5 261/4/5
f 266/4/5 262/4/5 265/4/5
f 267/4/5 264/4/5 263/4/5
f 268/4/5 264/4/5 267/4/5
f 273/4/5 270/4/5 269/4/5
f 274/4/5 270/4/5 273/4/5
f 275/4/5 272/4/5 271/4/5
f 276/4/5 272/4/5 275/4/5
f 277/3/5 274/3/5 273/3/5
f 278/3/5 274/3/5 277/3/5
f 279/3/5 276/3/5 275/3/5
f 280/3/5 276/3/5 279/3/5
f 281/4/5 278/4/5 277/4/5
f 282/4/5 278/4/5 281/4/5
f 283/4/5 280/4/5 279/4/5
f 284/4/5 280/4/5 283/4/5
f 287/1/5 286/1/5 285/1/5
f 288/1/5 286/1/5 287/1/5
f 293/3/5 290/3/5 289/3/5
f 294/4/5 291/4/5 290/4/5
f 294/3/5 290/3/5 293/3/5
f 295/3/5 292/3/5 291/3/5
f 295/4/5 291/4/5 294/4/5
f 296/3/5 292/3/5 295/3/5
f 301/3/5 298/3/5 297/3/5
f 302/4/5 299/4/5 298/4/5
f 302/3/5 298/3/5 301/3/5
f 303/3/5 300/3/5 299/3/5
f 303/4/5 299/4/5 302/4/5
f 304/3/5 300/3/5 303/3/5
f 305/3/6 306/3/6 309/3/6
f 306/4/6 307/4/6 310/4/6
f 309/3/6 306/3/6 310/3/6
f 307/3/6 308/3/6 311/3/6
f 310/4/6 307/4/6 311/4/6
f 311/3/6 308/3/6 312/3/6
f 313/3/6 314/3/6 317/3/6
f 314/4/6 315/4/6 318/4/6
f 317/3/6 314/3/6 318/3/6
f 315/3/6 316/3/6 319/3/6
f 318/4/6 315/4/6 319/4/6
f 319/3/6 316/3/6 320/3/6
f 321/1/6 322/1/6 323/1/6
f 323/1/6 322/1/6 324/1/6
f 325/4/6 326/4/6 329/4/6
f 329/4/6 326/4/6 330/4/6
f 327/4/6 328/4/6 331/4/6
f 331/4/6 328/4/6 332/4/6
f 329/3/6 330/3/6 333/3/6
f 333/3/6 330/3/6 334/3/6
f 331/3/6 332/3/6 335/3/6
f 335/3/6 332/3/6 336/3/6
f 333/4/6 334/4/6 337/4/6
f 337/4/6 334/4/6 338/4/6
f 335/4/6 336/4/6 339/4/6
f 339/4/6 336/4/6 340/4/6
f 341/4/6 342/4/6 345/4/6
f 345/4/6 342/4/6 346/4/6
f 343/4/6 344/4/6 347/4/6
f 347/4/6 344/4/6 348/4/6
f 345/3/6 346/3/6 349/3/6
f 349/3/6 346/3/6 350/3/6
f 347/3/6 348/3/6 351/3/6
f 351/3/6 348/3/6 352/3/6
f 349/4/6 350/4/6 353/4/6
f 353/4/6 350/4/6 354/4/6
f 351/4/6 352/4/6 355/4/6
f 355/4/6 352/4/6 356/4/6
f 357/3/6 358/3/6 361/3/6
f 361/3/6 358/3/6 362/3/6
f 359/3/6 360/3/6 363/3/6
f 363/3/6 360/3/6 364/3/6
f 365/4/6 366/4/6 367/4/6
f 367/4/6 366/4/6 368/4/6
